<?xml version="1.0" standalone="no"?>
<!DOCTYPE svg PUBLIC "-//W3C//DTD SVG 20010904//EN"
 "http://www.w3.org/TR/2001/REC-SVG-20010904/DTD/svg10.dtd">
<svg version="1.0" xmlns="http://www.w3.org/2000/svg"
 width="512.000000pt" height="512.000000pt" viewBox="0 0 512.000000 512.000000"
 preserveAspectRatio="xMidYMid meet">

<g transform="translate(0.000000,512.000000) scale(0.100000,-0.100000)"
fill="#915EFF" stroke="none">
<path d="M4895 4488 c-55 -5 -167 -22 -250 -39 -510 -102 -957 -364 -1332
-779 -183 -202 -362 -462 -480 -696 -32 -63 -60 -114 -63 -114 -3 1 -18 11
-34 24 l-29 24 12 83 c46 321 177 601 392 835 90 98 101 121 83 169 -10 26
-63 45 -94 33 -34 -13 -60 -38 -148 -143 -178 -213 -292 -435 -353 -687 -12
-54 -24 -96 -26 -94 -2 2 -15 50 -29 107 -63 263 -205 522 -393 721 -90 95
-118 112 -159 97 -31 -12 -55 -54 -48 -84 4 -14 45 -67 91 -117 132 -143 241
-319 309 -500 35 -94 74 -260 81 -343 l6 -70 -42 -28 c-22 -16 -42 -27 -44
-25 -1 2 -28 54 -60 116 -236 464 -600 880 -1000 1142 -284 186 -621 310 -965
356 -273 36 -311 16 -318 -163 -6 -137 3 -158 95 -240 120 -107 113 -64 113
-651 0 -574 2 -598 75 -747 74 -152 175 -254 330 -331 110 -55 197 -74 338
-74 59 0 107 -3 107 -7 0 -5 -52 -55 -115 -113 -206 -188 -279 -296 -336 -500
-20 -70 -17 -291 5 -370 40 -145 100 -254 194 -352 251 -263 634 -365 988
-263 168 49 302 133 460 287 l92 89 4 -75 c3 -65 7 -79 34 -113 34 -42 113
-100 150 -109 13 -3 35 -3 48 0 37 9 116 67 150 109 27 34 31 48 34 113 l4 74
108 -103 c59 -57 133 -120 164 -141 404 -268 938 -215 1263 127 87 92 142 183
184 307 31 89 33 104 33 235 1 161 -12 222 -74 351 -52 108 -124 197 -267 328
-65 61 -119 113 -121 117 -1 3 59 9 135 11 116 4 151 9 218 32 195 66 336 192
426 381 66 138 69 172 69 727 0 329 4 506 11 533 8 30 32 60 95 120 46 44 88
93 94 108 16 45 13 213 -6 252 -30 64 -63 74 -209 63z"/>
</g>
</svg>
